<svg width="1296" height="676" viewBox="0 0 1296 676" fill="none" xmlns="http://www.w3.org/2000/svg">
<path d="M387.611 257.5C291.443 289.886 188.77 271.642 91.4706 255.52C63.186 250.853 34.9013 246.328 6.4752 242.933C0.252574 242.226 -1.86878 250.712 5.06097 251.56C106.461 263.44 207.013 291.583 309.828 282.249C337.689 279.703 365.125 274.188 391.571 265.278C398.218 263.016 393.409 255.52 387.611 257.5Z" fill="#3F80A9" style="mix-blend-mode:multiply"/>
<path d="M1236.01 277.3C1159.08 254.53 1082.28 231.337 1001.81 225.821C979.326 224.266 956.84 223.842 934.354 224.124C934.071 218.467 933.788 212.811 933.505 207.295C935.344 206.871 937.041 206.446 938.738 205.881C943.546 204.325 947.506 201.921 950.759 198.81C951.183 197.961 951.607 197.113 952.173 196.405C952.88 195.415 953.587 194.567 954.294 193.718C954.294 191.88 955.991 188.91 956.84 187.496C957.264 186.647 957.83 186.082 958.396 185.374C959.103 183.112 959.527 180.849 959.951 178.869C961.366 177.03 962.497 175.05 963.204 173.071C963.77 171.515 964.335 170.101 964.618 168.545C966.174 160.908 964.053 153.271 959.81 146.907C955.85 140.967 950.052 136.018 943.688 133.189C943.405 129.512 942.981 125.977 942.273 122.441C942.273 121.451 942.273 120.461 942.132 119.33C941.566 113.956 939.586 109.43 936.616 105.753C936.051 104.48 935.344 103.349 934.778 102.076C936.475 100.096 937.889 96.8434 939.586 92.4593L939.728 92.1764L940.011 91.4693C942.698 84.681 946.516 75.2056 946.94 69.8315C947.082 68.2759 946.94 67.0031 946.516 65.8717C945.95 63.7503 944.678 62.3361 942.839 61.629C941.425 60.9219 939.728 60.7804 937.889 61.2047C936.051 61.629 934.071 62.4775 931.808 63.7503C928.838 65.4474 925.303 68.1345 922.05 70.8215C918.797 73.65 915.827 76.4784 914.13 78.7412C913.14 80.014 912.433 81.1454 912.009 82.1354C909.322 80.2969 906.493 78.7412 903.806 77.4684C899.988 75.6299 896.169 74.2157 892.775 73.0843C890.654 72.3772 888.674 71.9529 886.835 71.5286C883.866 70.8215 881.603 70.2558 880.896 69.6901C880.471 69.2658 880.33 67.7102 880.047 66.1545C879.906 64.7403 879.623 63.3261 879.34 61.9118C878.633 59.0834 877.077 56.3963 874.814 54.6992C872.552 53.0022 869.865 52.1536 866.47 53.0022C863.642 53.7093 860.389 55.8306 857.561 58.6591C855.015 61.2047 852.47 64.4575 850.631 68.1345C848.793 71.8115 847.52 75.7713 846.671 79.7312C846.388 80.8626 846.247 81.9939 845.964 83.2668C842.146 85.9538 838.327 89.0651 834.65 93.3078C830.832 97.8334 827.438 103.349 824.468 110.844C821.498 118.34 819.235 127.532 817.679 138.139C816.265 148.039 815.558 159.211 815.7 171.373C815.841 183.819 816.972 196.971 818.528 210.548C819.801 221.154 821.215 231.903 822.771 242.651C813.437 233.6 800.426 232.61 786.142 231.478C785.152 231.337 784.162 231.337 782.324 231.196C776.101 230.63 770.444 230.064 765.07 229.498C760.403 229.074 755.736 228.509 751.635 228.226C751.21 225.68 750.786 222.993 750.362 220.165C747.533 201.355 744.846 176.04 742.301 152.281C740.887 138.846 739.472 125.977 738.2 115.653C736.361 100.379 734.664 88.9237 732.825 80.014C730.987 70.8215 729.148 64.316 727.027 59.2248C724.623 53.285 721.936 49.3252 719.39 45.5067C717.552 42.8197 715.855 40.2741 714.44 37.1628C712.602 33.2029 711.046 28.3945 709.491 23.5861C708.076 19.202 706.662 14.8179 705.106 11.2823C703.975 8.59524 702.702 6.33247 701.288 4.77681C699.874 2.93831 698.177 1.52408 696.621 0.816959C694.358 -0.173004 692.095 -0.314427 689.974 0.675536C689.267 0.958383 688.701 1.38265 688.136 1.80692C686.014 3.504 684.176 6.61532 682.762 10.2923C681.347 14.1108 680.216 18.6363 679.367 23.1618C679.367 23.5861 679.226 23.869 679.226 24.2932C675.408 23.4447 671.448 22.879 667.771 22.4547C661.265 21.7476 654.901 21.6062 648.537 22.1719C642.032 22.879 635.385 24.2932 628.455 26.8389C621.525 29.3845 614.313 32.9201 607.666 37.0213C600.877 41.1226 594.796 45.6481 590.412 49.8908C586.311 53.9921 583.624 57.8106 581.927 61.3461C579.805 66.0131 579.381 70.2558 579.947 73.7914C580.23 75.9127 580.937 77.6098 581.502 79.0241C582.068 80.4383 582.492 81.5697 582.068 82.4182C581.361 83.5496 579.664 85.2467 577.684 87.0852C574.148 90.4793 570.189 94.4392 567.784 99.2476C565.663 103.632 565.097 108.44 566.37 113.673C567.36 118.623 569.906 123.855 574.007 129.654C576.411 133.048 579.381 136.583 582.634 140.543C589.422 148.604 597.2 158.08 602.433 169.252C606.252 177.313 608.656 186.506 610.211 196.688C610.353 197.82 610.494 199.092 610.636 200.224C579.664 208.568 548.127 215.073 516.589 221.013C444.888 234.448 372.055 243.358 299.08 244.489C253.542 245.196 208.003 242.792 163.172 234.731C161.758 234.448 164.304 243.782 166.991 244.206C244.915 258.207 325.243 255.945 403.733 247.742C464.404 241.378 524.792 231.054 584.331 217.336C593.523 215.215 602.575 213.093 611.626 210.689C612.05 217.053 612.05 223.559 611.909 230.488C611.626 242.651 610.636 255.945 608.939 269.946C607.383 284.088 605.262 298.796 602.857 314.07C602.716 314.918 602.292 317.747 601.726 320.717C597.059 350.133 591.968 381.246 597.059 410.945C600.453 431.451 608.656 450.967 616.858 470.06C621.242 480.383 625.485 490.566 629.021 500.89C636.516 523.093 640.335 545.58 643.729 565.803C644.719 571.884 645.709 577.824 646.84 583.764C649.103 596.068 651.79 607.099 654.477 616.291C657.305 625.767 660.275 633.403 663.245 638.778C666.498 644.717 669.892 648.112 673.145 650.091C676.539 652.213 679.792 652.778 682.479 653.061C685.449 653.344 687.994 653.344 690.823 652.071C693.368 650.799 695.773 648.536 698.035 644.293C699.732 641.323 701.429 637.081 703.127 631.282C704.965 636.232 706.945 640.475 709.208 643.869C713.026 649.667 717.41 653.344 722.077 655.607C726.744 657.87 731.553 658.577 736.22 658.577C741.028 658.577 745.554 657.587 749.655 654.9C753.756 652.213 757.009 647.97 759.13 641.323C761.534 633.686 762.1 623.08 762.807 611.624C763.231 605.26 763.514 598.755 764.221 592.249C765.211 583.34 766.767 574.571 768.606 565.803C770.444 557.035 772.707 547.984 775.111 538.508C777.515 529.033 780.061 519.133 782.748 509.658C785.576 500.041 788.688 490.283 792.365 481.091C796.325 471.191 800.991 461.716 805.8 455.634C809.053 451.533 812.305 448.987 814.992 449.412C819.659 449.977 825.741 457.614 832.105 465.675C835.923 470.484 839.741 475.292 843.843 479.252C840.59 484.909 841.58 493.677 843.418 509.092C843.701 511.355 843.984 513.759 844.126 515.598C845.398 527.336 846.954 542.61 848.227 558.166C849.358 571.884 850.348 585.32 850.914 596.068C851.48 607.664 851.621 616.433 851.48 623.08C851.338 629.585 850.773 634.252 849.924 637.929C849.5 640.192 848.934 642.03 848.51 643.586C846.813 649.243 845.964 652.496 850.348 655.748C852.47 657.304 856.288 658.294 860.106 658.435C863.501 658.577 867.319 658.011 870.43 656.738C873.966 655.324 876.37 653.203 878.633 649.667C880.613 646.697 882.31 642.879 884.714 637.505C886.977 632.272 889.805 625.625 892.775 618.13V617.988C894.614 624.211 896.452 630.292 897.725 636.091C898.998 642.03 899.705 647.546 900.412 652.354C901.261 659.143 901.968 664.517 903.806 668.476C905.786 672.861 908.897 674.841 912.292 675.548C915.262 676.255 917.949 675.972 920.211 675.689C922.757 675.406 924.737 675.123 926.858 673.426C928.838 671.871 930.252 669.466 931.101 665.365C931.808 661.688 932.232 656.314 932.657 650.233C932.939 645.707 933.364 640.616 933.788 635.808C934.354 630.151 935.202 624.494 936.758 617.988C938.313 611.483 940.576 604.27 943.829 595.502C946.375 588.714 949.627 581.218 952.88 573.44C958.537 560.146 964.477 545.862 968.578 532.852C970.982 525.497 972.679 518.851 974.235 512.769C976.781 503.011 978.902 494.526 982.579 487.737C983.286 488.869 983.993 490 984.7 491.132C990.782 500.607 998.136 511.779 1003.37 523.8C1006.2 530.447 1008.46 537.377 1010.3 544.165C1012.28 551.944 1013.55 559.581 1014.12 566.369C1014.68 572.591 1014.82 578.248 1014.4 583.198C1013.98 588.007 1013.27 592.391 1012 596.068C1011.01 599.179 1009.73 602.008 1008.74 604.412C1006.76 609.079 1005.21 612.614 1005.91 616.008C1006.76 619.685 1009.59 621.665 1013.98 622.514C1016.94 623.08 1020.76 623.221 1025.01 622.938C1029.25 622.797 1034.06 622.231 1038.58 620.958C1043.53 619.544 1048.2 617.281 1051.59 613.463C1057.96 606.392 1059.23 595.078 1061.21 578.107L1061.35 577.117L1061.78 573.016C1062.34 567.5 1063.05 561.702 1063.76 555.621C1065.59 560.146 1067.29 564.53 1068.71 568.773C1072.38 579.38 1074.93 588.855 1076.48 597.199C1078.18 606.392 1078.75 614.311 1078.32 620.675C1077.9 629.302 1075.64 635.525 1074.08 640.05C1073.51 641.889 1072.95 643.445 1072.38 645.142C1071.39 648.819 1071.53 651.93 1072.67 654.476C1074.08 657.445 1076.63 659.284 1080.44 659.991C1083.13 660.415 1086.81 660.274 1090.34 659.708C1094.02 659.001 1097.7 657.87 1100.81 656.597C1104.06 655.041 1106.61 653.203 1108.3 650.657C1110 648.111 1110.99 645 1111.13 640.899C1111.27 637.505 1111.13 633.403 1110.85 628.878C1110.57 624.07 1110.28 618.695 1110.43 613.463C1111.7 574.147 1112.69 535.114 1112.55 496.081C1112.26 457.049 1110.85 418.016 1107.03 378.559C1105.76 365.548 1104.2 355.789 1102.22 347.87C1100.24 339.95 1097.98 333.869 1095.72 328.353C1093.31 322.838 1090.77 317.747 1087.37 312.938C1083.98 308.13 1079.88 303.463 1074.22 298.513C1068.42 293.563 1061.21 288.331 1052.87 283.664C1045.37 279.421 1037.03 275.602 1027.98 272.35C1019.07 269.238 1009.73 266.834 1000.4 265.137C989.792 263.157 979.326 261.884 970.275 261.46C961.79 261.036 954.294 261.177 947.93 261.743C944.678 262.026 941.708 262.45 938.879 263.016C938.313 260.612 937.889 258.349 937.465 256.086C936.616 251.278 935.909 246.469 935.485 240.529C935.344 238.267 935.061 235.863 934.919 233.317C935.768 234.024 936.616 234.448 937.324 234.448C979.468 233.741 1021.75 235.438 1063.61 241.661C1100.53 247.176 1136.87 256.227 1172.79 266.269C1196.98 273.057 1221.16 280.269 1245.34 287.482C1246.62 287.906 1242.94 283.381 1242.8 283.098C1240.96 281.259 1238.41 278.007 1236.01 277.3ZM935.909 197.82C928.697 200.224 920.777 200.931 912.716 200.082C906.635 199.517 900.553 198.102 895.038 196.123C913.14 199.092 920.211 197.678 930.111 195.557C934.071 194.708 938.314 193.86 944.112 193.153C941.991 195.133 939.162 196.688 935.909 197.82ZM881.037 199.375C882.027 199.941 883.017 200.507 884.148 200.931C884.714 201.214 885.28 201.497 885.987 201.779C884.431 201.921 882.876 201.921 881.32 202.062C865.056 202.204 848.934 197.395 839.317 188.627C838.469 187.779 837.337 186.364 836.206 184.809C855.298 197.395 869.582 200.507 881.037 199.375ZM951.607 175.333C950.334 176.606 948.92 177.879 947.365 178.869C944.112 180.99 940.293 182.122 936.334 181.98C929.687 181.556 923.888 178.869 919.646 174.909C916.11 171.656 913.564 167.414 912.15 163.03C910.877 158.645 910.736 153.978 912.292 149.736C913.847 145.21 916.959 140.967 922.191 137.573C924.313 136.159 927 135.452 929.545 135.028C929.262 136.159 929.404 137.29 929.97 138.563C930.535 139.978 931.95 141.816 934.071 143.655C941.001 149.877 946.658 155.534 949.627 161.757C951.324 165.575 952.173 169.959 951.607 175.333ZM921.201 83.8324C922.474 82.1354 924.878 79.7312 927.707 77.327C930.535 74.9228 933.647 72.66 936.192 71.2458C936.758 70.9629 937.182 70.6801 937.606 70.3972C936.758 74.7814 933.788 82.4182 931.525 87.9337L931.384 88.7823L931.242 89.0651C930.252 91.6107 929.97 93.4492 929.828 94.2978C928.131 91.8936 926.434 89.9136 925.02 88.2166C924.454 87.5095 923.747 86.8023 923.04 86.0952C921.484 84.681 921.06 84.1153 921.201 83.8324ZM858.692 71.9529C860.106 69.2658 861.945 66.7202 863.925 64.7403C865.763 62.9018 867.46 61.629 868.733 61.3461C869.016 61.2047 869.299 61.3461 869.299 61.3461C869.865 61.7704 870.289 62.7604 870.572 63.8918C870.855 64.8817 870.996 65.8717 871.137 66.8616C871.42 68.4173 871.562 69.973 871.986 71.5286C870.572 71.67 869.016 71.9529 867.036 72.5186C864.349 73.3671 860.531 74.7814 856.429 76.7613C857.137 75.2056 857.844 73.5085 858.692 71.9529ZM853.601 92.3179C853.742 91.045 853.884 89.7722 854.167 88.358C856.288 87.0852 858.409 85.8124 860.531 84.9638C864.208 83.1253 867.46 81.9939 869.865 81.2868C870.572 81.004 871.137 80.8626 871.562 80.7211C871.703 81.5697 871.845 82.4182 871.703 83.5496C871.562 84.5396 871.279 85.3881 870.855 86.0952C870.006 87.2266 867.885 88.4994 865.481 89.7722C863.501 90.9036 861.238 92.1764 858.975 93.8735C856.995 95.2877 855.015 97.1262 853.177 98.6819C853.035 98.8233 852.894 98.8233 852.894 98.9647C853.035 96.9848 853.318 94.722 853.601 92.3179ZM826.589 139.27C828.003 129.371 830.266 120.744 832.953 113.956C835.499 107.592 838.469 102.642 841.721 98.9647C842.57 97.9748 843.419 96.9848 844.267 96.1363C843.984 98.1162 843.843 99.9547 843.843 101.51C843.701 106.319 844.833 109.854 848.368 110.844C851.904 111.834 855.298 108.864 859.116 105.329C860.672 103.915 862.511 102.359 864.208 101.086C866.046 99.6719 868.026 98.5405 869.865 97.5505C873.117 95.712 875.946 94.1564 877.926 91.4693C879.481 89.348 880.33 86.8023 880.613 84.3981C880.896 82.4182 880.613 80.4383 880.33 78.7412C881.744 79.1655 883.158 79.5897 884.855 79.8726C886.553 80.2969 888.391 80.7211 890.23 81.2868C893.2 82.1354 896.594 83.4082 899.988 85.1053C903.099 86.6609 906.21 88.358 909.039 90.4793C911.726 92.3178 914.13 94.4392 916.393 96.2777C919.363 98.6819 922.05 100.945 924.454 102.217C924.878 102.925 925.303 103.632 925.727 104.339C925.868 104.622 926.01 104.905 926.151 105.046C925.727 105.47 925.444 105.894 925.02 106.46C925.303 106.743 925.727 106.884 926.01 107.167C926.858 107.874 927.565 108.44 928.272 109.289C929.828 112.541 931.242 116.077 932.374 120.037C932.657 121.31 932.939 122.582 933.222 123.855C933.081 124.421 932.657 124.704 932.091 124.987C931.242 125.411 929.828 125.694 928.131 125.977C924.737 126.684 920.918 127.532 917.1 129.936C910.17 134.462 905.928 140.26 903.806 146.624C901.826 152.706 901.826 159.07 903.665 165.151C905.362 171.091 908.756 176.606 913.564 180.99C916.676 183.819 920.353 186.223 924.454 187.779C916.393 189.334 909.18 189.9 891.927 186.789C889.664 186.364 887.825 186.082 886.128 185.657C882.168 184.95 880.189 184.526 878.35 184.526C877.219 184.526 876.229 184.667 875.38 185.092C874.249 185.516 873.4 186.223 872.693 187.354C872.269 188.203 871.986 189.051 871.986 189.9C862.935 189.051 852.187 184.95 838.61 175.475C834.509 172.646 831.539 171.373 829.418 171.373C826.872 171.373 825.316 172.222 824.326 173.919C824.326 172.929 824.326 171.939 824.326 170.949C824.468 159.635 825.175 148.887 826.589 139.27ZM748.523 254.955C751.069 263.44 753.473 269.521 756.16 275.32C757.009 277.3 757.999 279.421 758.989 281.542C761.676 287.341 764.08 292.432 764.929 295.26C762.1 293.846 758.423 290.735 754.322 285.502C750.079 280.128 745.695 272.774 741.877 265.42C737.775 257.359 734.381 249.439 732.967 243.782C731.835 239.822 731.694 237.842 732.401 237.277C733.25 236.428 735.795 236.287 739.614 236.287C741.028 236.287 742.442 236.428 744.139 236.428C745.553 243.782 746.968 249.863 748.523 254.955ZM688.419 24.4347C689.126 20.3334 690.116 16.3735 691.247 13.1208C691.954 11.1409 692.661 9.72663 693.368 8.87809C693.651 9.16094 694.075 9.44378 694.5 10.0095C695.348 11.1409 696.338 12.6965 697.187 14.6764C698.601 17.7878 699.874 21.889 701.147 26.1317C702.137 29.1016 702.985 32.0715 704.116 35.0414C699.874 31.5058 694.783 28.8188 689.126 26.8389C688.843 26.6974 688.419 26.556 688.136 26.556C688.136 25.7075 688.277 25.0003 688.419 24.4347ZM698.601 41.9711C701.854 44.7996 704.116 48.3352 705.672 52.0122C707.652 56.3963 708.359 60.9219 708.218 64.4575C708.218 66.4374 707.794 67.993 707.228 68.983C707.086 69.1244 707.086 69.2658 706.945 69.2658C706.662 69.2658 706.096 68.983 705.389 68.5587C703.127 67.1445 700.298 64.0332 697.47 60.2148C694.5 56.1135 691.813 51.3051 689.974 46.921C688.277 42.8197 687.57 39.1427 687.287 35.6071C691.813 37.3042 695.631 39.4255 698.601 41.9711ZM701.147 539.781C700.864 524.366 701.147 509.799 702.137 499.334C703.127 488.162 704.682 481.798 706.521 478.828V478.686C707.511 479.959 708.501 482.646 709.491 487.172C710.622 492.829 711.188 500.607 710.905 511.214C710.622 522.103 709.491 535.963 707.935 550.247C706.662 561.985 704.965 574.006 703.409 584.754C702.137 571.036 701.429 555.055 701.147 539.781ZM810.184 405.712C811.174 417.592 814.002 429.188 816.972 440.785C816.689 440.785 816.265 440.643 815.982 440.643C809.618 439.795 803.82 443.755 798.587 450.26C793.072 457.19 788.122 467.373 783.879 477.979C780.061 487.455 776.808 497.354 773.98 507.395C771.01 517.578 768.606 527.336 766.201 536.67C763.797 546.145 761.534 555.196 759.554 564.248C757.575 573.299 756.019 582.35 755.029 591.542C754.322 598.189 753.897 604.977 753.615 611.341C752.908 622.372 752.342 632.414 750.362 638.919C748.948 643.303 746.968 645.99 744.564 647.687C742.159 649.243 739.189 649.809 735.937 649.95C732.543 649.95 729.148 649.526 725.896 647.829C722.643 646.273 719.39 643.586 716.562 639.202C713.592 634.535 710.905 628.171 708.783 619.544C708.359 617.705 707.794 615.726 707.369 613.604C708.218 609.22 709.208 604.412 710.056 599.038C712.46 585.461 714.865 568.207 716.703 551.237C718.259 536.811 719.532 522.81 719.673 511.497C719.956 500.183 719.249 491.697 718.117 485.616C716.562 477.272 713.592 472.464 710.339 470.625C709.208 469.918 708.076 469.494 706.804 469.494C705.106 469.352 703.409 469.777 701.854 470.767C700.722 471.615 699.591 472.747 698.601 474.302C696.197 478.262 694.075 486.04 692.944 498.627C691.954 509.517 691.671 524.366 691.954 540.064C692.237 556.045 693.085 572.733 694.358 586.875C695.348 597.199 696.621 606.109 698.035 613.746C697.045 618.695 696.055 622.797 695.065 626.332C693.227 632.979 691.53 637.505 689.833 640.475C688.56 642.737 687.57 644.01 686.58 644.434C685.731 644.859 684.6 644.859 683.044 644.717C681.347 644.576 679.509 644.152 677.529 643.02C675.408 641.747 673.145 639.343 670.741 634.959C668.054 630.151 665.367 623.08 662.679 614.311C659.992 605.402 657.447 594.654 655.325 582.633C654.335 577.258 653.346 571.177 652.214 564.813C648.82 544.307 645.002 521.255 637.223 498.486C633.688 488.02 629.162 477.555 624.778 467.09C616.858 448.422 608.939 429.612 605.544 409.955C600.877 381.811 605.686 351.264 610.211 322.696C610.494 321.141 610.777 319.585 611.343 316.05C613.747 300.352 616.01 285.502 617.565 271.501C619.121 257.359 620.252 243.924 620.535 231.337C620.818 218.609 620.394 206.871 618.697 195.981C617.141 184.95 614.313 175.05 610.211 165.999C604.554 153.837 596.211 143.796 589.139 135.311C586.028 131.634 583.2 128.239 580.937 124.987C577.543 120.178 575.563 116.077 574.714 112.4C574.007 109.147 574.29 106.177 575.563 103.632C577.26 100.238 580.654 96.8434 583.624 94.0149C586.028 91.7522 588.149 89.6308 589.422 87.5095C592.251 82.9839 590.978 79.8726 589.564 76.1956C589.139 75.0642 588.715 73.9328 588.432 72.66C588.149 70.6801 588.291 68.2759 589.705 65.306C590.836 62.619 592.958 59.7905 596.211 56.5377C600.17 52.7193 605.686 48.618 611.909 44.941C618.131 41.264 624.919 37.8699 631.283 35.4657C637.648 33.2029 643.446 31.7887 649.103 31.223C654.901 30.6573 660.558 30.7987 666.639 31.5058C670.458 31.9301 674.418 32.4958 678.377 33.4857C678.377 34.4757 678.377 35.4657 678.519 36.4556C678.802 40.9812 679.792 45.7896 681.772 50.8808C683.752 55.9721 686.863 61.3461 690.257 66.0131C693.651 70.6801 697.47 74.6399 700.722 76.7613C702.844 78.0341 704.824 78.7412 706.662 78.7412C708.359 78.7412 710.056 78.3169 711.471 77.6098C712.743 76.7613 713.875 75.7713 714.723 74.3571C716.137 72.0943 716.986 68.983 716.986 65.4474C716.986 63.4675 716.845 61.2047 716.562 58.8005C717.269 60.0733 717.976 61.4876 718.542 63.1846C720.38 67.8516 722.077 73.7914 723.774 82.2768C725.471 91.045 727.169 102.217 729.007 117.35C730.28 128.522 731.694 140.967 733.108 153.978C735.654 178.02 738.341 203.618 741.311 222.286C741.594 224.407 742.018 226.387 742.301 228.367C741.311 228.367 740.462 228.367 739.472 228.226C733.108 228.226 728.583 228.933 725.754 231.903C722.643 235.014 722.077 239.681 724.057 247.035C725.754 253.116 729.29 261.884 733.674 270.37C737.775 278.289 742.442 286.068 746.968 291.866C752.766 299.22 758.423 303.463 762.524 305.019C763.939 305.584 765.353 305.867 766.626 305.726C768.323 305.726 769.878 305.16 771.151 304.17C772.141 303.463 772.848 302.331 773.273 301.2C774.97 296.392 771.293 288.331 766.767 278.714C765.918 276.734 764.928 274.754 763.939 272.633C761.393 267.117 758.989 261.319 756.726 253.399C755.453 249.015 754.18 244.065 753.049 238.125C756.443 238.408 760.12 238.832 763.939 239.257C769.878 239.822 775.96 240.529 781.334 240.954C782.041 240.954 783.596 241.095 785.294 241.237C798.446 242.227 810.467 243.217 817.397 250.853C821.215 255.096 823.761 261.319 825.316 269.097C827.013 277.582 827.438 287.623 826.448 298.23C825.175 313.645 821.215 330.05 817.538 344.758C816.124 350.415 814.851 355.931 813.861 360.456C811.881 369.79 810.467 377.852 809.901 385.347C809.618 391.994 809.618 398.924 810.184 405.712ZM884.431 614.877C881.461 622.514 878.774 629.019 876.512 633.969C874.39 638.919 872.835 642.313 871.279 644.717C870.006 646.556 868.875 647.687 867.178 648.394C865.339 649.101 862.793 649.526 860.389 649.384C858.126 649.384 856.429 648.96 855.722 648.536C855.157 648.111 856.571 647.829 857.137 645.849C857.702 644.01 858.268 642.03 858.692 639.485C859.541 635.383 860.106 630.292 860.389 623.08C860.672 616.15 860.531 607.24 859.824 595.361C859.258 584.188 858.268 570.612 857.137 557.176C855.864 541.903 854.308 526.346 852.894 514.325C852.611 511.497 852.328 509.658 852.187 507.82C850.772 495.799 849.924 488.727 850.914 484.909C855.015 487.737 859.399 489.717 863.642 490.99C870.147 492.97 876.936 493.394 883.724 493.394C886.694 493.394 889.381 493.253 892.068 493.112C893.199 493.112 894.331 492.97 895.462 492.97C894.331 496.93 893.341 501.173 892.351 505.415C889.523 517.436 886.835 530.023 885.138 540.63C883.3 551.944 882.593 561.136 882.734 569.339C882.876 577.683 883.866 585.037 885.563 592.391C886.411 596.068 887.401 599.745 888.533 603.563C887.118 607.664 885.704 611.483 884.431 614.877ZM860.248 480.383C864.632 479.959 870.43 479.959 876.794 479.959C879.199 479.959 881.744 479.959 884.29 479.959C889.24 479.959 894.331 479.818 899.281 479.535C898.856 480.949 898.432 482.505 897.866 484.202C895.745 484.202 893.765 484.343 891.502 484.485C888.815 484.626 885.987 484.768 883.441 484.909C877.501 485.05 871.703 484.626 866.046 482.929C864.208 482.081 862.228 481.373 860.248 480.383ZM893.765 588.289C892.492 582.208 891.785 576.127 891.644 569.48C891.502 561.702 892.21 553.075 893.907 542.185C895.604 531.72 898.149 519.416 900.978 507.678C902.251 502.587 903.523 497.637 904.655 493.112C907.766 493.394 910.17 494.102 911.302 495.516C912.999 497.496 913.423 501.738 912.857 507.254C912.292 513.759 910.736 521.82 908.615 530.73C906.493 540.488 903.806 551.378 900.978 562.409C898.856 571.319 896.311 580.228 893.765 588.289ZM983.569 471.474C983.145 470.342 982.72 469.07 982.579 468.08C982.155 465.11 983.286 461.998 987.105 458.321C991.913 453.513 1000.82 447.856 1010.44 441.916L1011.29 441.351C1012.14 443.896 1012.99 446.442 1014.12 449.129C1012.56 450.402 1011.01 451.675 1009.17 452.806C1007.19 454.22 1004.64 455.917 1001.95 457.614C995.873 461.574 989.226 465.958 983.569 471.474ZM1052.72 571.884L1052.3 575.986L1052.16 576.976C1050.46 592.249 1049.33 602.432 1044.81 607.382C1042.68 609.786 1039.57 611.2 1036.04 612.19C1032.22 613.18 1028.12 613.604 1024.44 613.887C1020.76 614.028 1017.79 614.029 1015.67 613.604C1014.96 613.463 1014.68 614.029 1014.54 613.746C1014.4 613.18 1015.39 610.776 1016.8 607.664C1017.93 604.977 1019.35 601.866 1020.48 598.33C1021.89 593.946 1022.74 588.997 1023.17 583.481C1023.59 578.107 1023.45 572.026 1022.88 565.096C1022.18 557.883 1020.9 549.822 1018.78 541.62C1016.94 534.407 1014.54 527.053 1011.43 519.841C1005.91 507.254 998.418 495.657 992.054 485.899C990.64 483.778 989.367 481.656 988.519 480.383L987.953 479.535C993.327 473.737 1000.26 469.07 1006.76 464.968C1009.31 463.271 1011.71 461.716 1014.26 459.877C1015.39 459.029 1016.52 458.18 1017.51 457.473C1021.89 467.373 1027.13 478.121 1032.64 489.152L1034.34 492.687C1040.85 505.84 1047.49 519.275 1053.29 531.862C1054.28 533.983 1055.27 536.104 1056.26 538.226C1055.27 549.398 1054 561.419 1052.72 571.884ZM1021.33 405.853C1024.72 401.186 1029.53 397.792 1034.34 395.105C1038.02 393.125 1041.55 391.57 1044.81 390.721C1046.93 390.155 1048.62 390.014 1049.9 390.155C1050.32 390.155 1050.46 390.155 1050.46 390.155C1050.89 391.994 1049.33 395.812 1045.94 400.762C1042.54 405.853 1037.17 411.51 1030.24 417.167C1026.14 420.42 1021.61 423.673 1016.94 426.784C1016.8 425.511 1016.66 424.238 1016.52 423.107C1016.1 416.036 1018.08 410.379 1021.33 405.853ZM1057.53 519.841C1052.58 509.375 1047.35 498.91 1042.4 488.727L1040.7 485.192C1034.91 473.595 1029.25 462.281 1024.86 452.099C1027.55 450.402 1029.81 449.836 1031.79 451.25C1034.62 453.23 1038.02 457.614 1041.27 462.847C1045.37 469.494 1049.33 477.696 1052.16 484.626C1054.7 490.99 1056.12 496.223 1056.97 501.88C1057.67 507.254 1057.82 512.911 1057.53 519.841ZM948.637 270.511C954.719 269.946 961.648 269.804 969.709 270.228C978.478 270.653 988.377 271.784 998.56 273.764C1007.47 275.461 1016.38 277.724 1024.86 280.694C1033.35 283.664 1041.27 287.341 1048.34 291.3C1056.12 295.685 1062.91 300.493 1068.28 305.019C1073.23 309.261 1076.91 313.362 1079.88 317.747C1082.85 322.131 1085.25 326.656 1087.37 331.606C1089.64 336.697 1091.62 342.213 1093.45 349.567C1095.29 357.062 1096.85 366.396 1097.98 378.983C1101.66 418.157 1103.21 456.907 1103.35 495.657C1103.64 534.407 1102.51 573.299 1101.23 612.614C1101.09 618.413 1101.37 623.928 1101.66 628.878C1101.94 633.121 1102.08 636.939 1101.94 639.768C1101.8 642.313 1101.37 644.01 1100.53 645.142C1099.82 646.273 1098.55 647.122 1096.71 647.97C1094.44 648.96 1091.47 649.95 1088.51 650.374C1085.82 650.799 1083.41 650.94 1081.72 650.657C1081.01 650.516 1080.59 650.374 1080.59 650.233C1080.3 649.667 1080.44 648.536 1080.87 646.839C1081.15 645.707 1081.72 644.293 1082.28 642.455C1084.12 637.363 1086.53 630.575 1086.95 620.534C1087.37 613.463 1086.81 604.977 1084.97 595.078C1083.27 586.31 1080.73 576.268 1076.77 565.237C1073.66 556.186 1069.7 546.57 1065.17 536.387C1065.59 531.013 1066.02 525.922 1066.16 521.255C1066.58 513.052 1066.44 506.547 1065.59 500.324C1064.75 493.96 1063.05 488.02 1060.22 481.091C1057.25 473.737 1053.15 465.11 1048.62 457.897C1044.66 451.533 1040.56 446.3 1036.6 443.613C1030.66 439.512 1026.14 440.361 1021.19 443.331C1020.2 440.785 1019.35 438.381 1018.64 435.977C1024.58 432.158 1030.52 428.057 1035.47 424.097C1043.11 417.874 1049.05 411.51 1052.87 405.712C1057.82 398.499 1059.8 391.994 1058.66 387.751C1058.52 387.044 1058.24 386.337 1057.82 385.771C1056.4 383.084 1053.71 381.67 1050.46 381.246C1048.06 380.963 1045.09 381.246 1041.98 382.094C1038.16 383.084 1033.77 384.923 1029.53 387.185C1023.73 390.297 1017.93 394.539 1013.69 400.479C1009.31 406.419 1006.48 414.056 1007.05 423.673C1007.19 426.36 1007.61 429.188 1008.18 432.158C1007.05 432.865 1006.06 433.572 1004.92 434.138C995.024 440.502 985.69 446.3 980.175 451.816C974.094 457.897 972.255 463.413 973.104 469.211C973.528 472.464 974.801 475.575 976.639 478.828C976.356 479.111 976.215 479.393 975.932 479.818C970.417 488.162 967.871 498.344 964.901 510.224C963.345 516.446 961.648 523.093 959.527 529.882C955.426 542.468 949.627 556.611 944.112 569.622C940.718 577.683 937.465 585.461 934.919 591.966C931.384 601.159 929.121 608.796 927.424 615.584C925.868 622.372 924.878 628.454 924.313 634.535C923.747 639.768 923.464 644.717 923.04 649.384C922.615 655.183 922.333 660.274 921.626 663.385C921.201 665.224 921.06 665.931 920.777 666.214C920.636 666.355 919.646 666.497 918.514 666.638C916.959 666.779 915.12 667.062 913.847 666.779C912.857 666.497 912.009 665.931 911.302 664.517C910.029 661.971 909.463 657.021 908.756 651.081C908.049 645.99 907.342 640.05 906.069 633.969C904.513 626.898 902.251 619.403 899.846 611.907C898.998 609.22 898.149 606.674 897.442 603.987C898.856 600.169 900.129 596.209 901.543 591.966C904.372 583.198 907.059 573.864 909.463 564.53C912.292 553.641 914.979 542.61 917.241 532.569C919.363 523.235 921.06 514.749 921.626 507.82C922.191 499.9 921.343 493.677 917.807 489.576C915.12 486.323 911.302 484.909 906.776 484.343C907.342 482.363 907.907 480.383 908.473 478.686C909.039 478.686 909.605 478.545 910.029 478.545C916.676 477.696 922.333 476.424 925.585 474.444C927.283 473.454 928.414 472.181 929.121 470.908C929.97 469.211 930.252 467.514 929.97 465.817C929.828 464.403 929.262 462.988 928.414 461.716C926.575 458.746 923.323 456.059 920.494 454.503C916.393 452.24 912.999 451.675 909.039 455.634C906.635 458.039 904.372 462.423 901.543 470.484C895.745 470.908 889.522 471.05 883.583 471.191C881.037 471.191 878.491 471.191 876.087 471.191C865.339 471.191 856.147 471.05 849.924 473.737L849.783 473.595C845.964 469.918 842.146 465.11 838.327 460.443C833.377 454.22 828.569 447.998 823.336 444.32L826.165 443.613C822.771 430.885 819.518 418.157 818.387 405.288C817.821 398.924 817.821 392.56 818.528 385.488C819.094 378.417 820.367 370.639 822.346 361.729C823.478 356.497 824.751 351.405 826.023 346.314C829.7 331.182 833.802 314.352 835.075 298.372C836.064 287.058 835.64 276.168 833.802 266.693C832.67 261.036 830.973 255.945 828.71 251.561L832.529 250.995C830.549 236.994 828.428 223.134 826.872 209.699C825.741 200.507 824.892 191.456 824.468 182.97C826.306 187.354 830.266 193.011 832.67 195.415C843.843 205.881 862.369 211.538 880.754 211.255C888.391 211.113 896.028 209.982 903.24 207.719C905.928 208.285 908.615 208.709 911.302 208.851C915.544 209.275 919.787 209.275 923.888 208.992C924.313 220.023 924.878 232.327 925.727 241.519C926.293 247.601 926.858 252.692 927.848 257.925C928.272 260.329 928.838 262.733 929.404 265.279C924.595 266.693 920.353 268.531 917.241 271.36C913.564 274.613 911.443 278.855 911.726 284.512C912.009 288.896 913.706 294.27 916.393 299.644C919.363 305.867 923.464 312.231 927.424 317.747C930.96 322.696 934.495 326.798 937.606 329.768C941.283 333.303 944.678 335.566 947.082 335.99C952.314 336.98 954.719 334.293 954.577 327.929C954.577 324.818 953.729 320.434 952.173 314.352C950.617 308.13 948.072 299.079 945.526 290.31C943.688 283.946 941.849 277.724 940.435 272.491L940.293 271.925C943.405 271.218 945.95 270.794 948.637 270.511ZM912.15 469.211C913.706 465.11 914.979 462.847 915.969 461.857C915.969 461.857 916.251 461.998 916.817 462.281C918.514 463.271 920.353 464.685 921.343 466.241C921.484 466.383 921.484 466.524 921.626 466.665L921.484 466.807C919.646 467.797 916.393 468.645 912.15 469.211ZM937.606 292.432C940.011 300.776 942.415 309.261 944.253 316.191C945.102 319.444 945.668 322.272 946.092 324.394C945.668 323.969 945.102 323.545 944.678 322.979C941.849 320.292 938.738 316.474 935.485 312.09C931.808 306.998 928.131 301.059 925.303 295.402C923.181 291.018 921.767 286.916 921.626 283.664C921.484 280.977 922.333 279.138 924.03 277.724C926.01 276.027 928.838 274.754 932.515 273.623L932.798 274.471C933.929 279.987 935.768 286.209 937.606 292.432Z" fill="#3F80A9" style="mix-blend-mode:multiply"/>
<path d="M1294.28 225.822C1292.15 223.7 1287.49 222.852 1284.66 223.276C1247.61 228.084 1210.41 233.176 1174.77 244.631C1171.66 245.621 1174.77 248.449 1176.19 249.298C1178.73 250.995 1182.83 251.702 1185.8 250.712C1220.74 239.54 1257.08 234.731 1293.29 230.064C1296.11 229.64 1296.11 227.66 1294.28 225.822Z" fill="#3F80A9" style="mix-blend-mode:multiply"/>
</svg>
