<svg width="18" height="31" viewBox="0 0 18 31" fill="none" xmlns="http://www.w3.org/2000/svg">
<path d="M5.40888 30.2077C5.39872 30.4819 5.22609 30.6038 4.96206 30.6241H11.4308V30.5936C11.1261 30.553 11.0246 30.4007 10.9941 30.0249C10.9738 29.7507 10.9839 29.4664 10.9839 29.1922C10.9839 25.445 10.9738 21.708 10.9738 17.9608C10.9738 17.7781 10.9636 17.5953 10.9738 17.4023C10.9941 16.925 11.0957 16.8133 11.5323 16.793C12.2229 16.7626 12.9235 16.7727 13.6141 16.7524C13.939 16.7422 14.264 16.7321 14.589 16.7321C14.9748 16.7422 15.1983 16.529 15.2896 16.1939C15.5943 15.1784 15.9091 14.1629 16.163 13.1372C16.2848 12.6498 16.5387 12.1827 16.4067 11.482H12.3549C10.8215 11.482 10.9535 11.5531 10.9535 10.04C10.9535 9.48145 10.9332 8.92293 10.9636 8.37456C10.9839 7.95821 11.0449 7.54186 11.1261 7.14581C11.3089 6.2928 11.8674 5.80536 12.7103 5.59211C13.4821 5.40932 14.2742 5.41947 15.0561 5.42963C16.6707 5.44994 16.6809 5.44994 16.9043 3.88607C17.016 3.1143 17.0566 2.32221 17.1175 1.54028C17.1378 1.22548 16.9551 1.02238 16.6403 0.971603C14.721 0.626334 12.7814 0.423235 10.8519 0.697419C8.36397 1.04269 6.18065 2.35268 5.58151 5.58195C5.41903 6.45528 5.40888 7.3286 5.39872 8.20193C5.38857 9.12603 5.39872 10.0501 5.38857 10.9742C5.38857 11.3093 5.19562 11.482 4.87066 11.482C3.713 11.4921 2.56549 11.4921 1.40783 11.5023C0.778218 11.5124 0.686824 11.6038 0.686824 12.2233C0.676669 13.513 0.686824 14.8128 0.696978 16.1025C0.707133 16.6712 0.778218 16.7524 1.32659 16.7626C2.30146 16.7727 3.26618 16.7626 4.24106 16.7626C4.51524 16.7626 4.79958 16.7626 5.07376 16.793C5.27686 16.8133 5.39872 16.9657 5.40888 17.1586C5.42919 17.3414 5.42919 17.5242 5.42919 17.707V29.6289C5.40888 29.832 5.40888 30.0148 5.40888 30.2077Z" fill="white"/>
</svg>
