<svg width="31" height="31" viewBox="0 0 31 31" fill="none" xmlns="http://www.w3.org/2000/svg">
<path d="M14.9674 0.431815C16.5635 0.431815 18.1596 0.444093 19.7557 0.431815C20.8607 0.419538 21.9534 0.579147 23.0216 0.800145C26.8768 1.57364 29.9585 5.03593 30.204 8.98934C30.4741 13.1269 30.5355 17.2645 30.1672 21.402C29.7866 25.6378 27.1592 29.2475 22.2972 30.1806C21.6588 30.3033 21.0203 30.4138 20.3696 30.4384C16.981 30.5121 13.5801 30.5612 10.1914 30.4998C9.13556 30.4752 8.10424 30.3156 7.09747 30.0332C3.56151 29.0142 1.44975 26.6078 0.516651 23.1209C0.0869331 21.5248 -0.0112896 19.8796 0.000988078 18.2221C0.0255434 15.828 0.037818 13.4338 0.074651 11.0397C0.0992063 9.79966 0.111485 8.54734 0.467537 7.33186C1.42519 3.98006 3.57378 1.81919 6.9133 0.886088C7.82185 0.628257 8.75496 0.468648 9.72489 0.468648C11.4683 0.480925 13.224 0.468648 14.9674 0.468648C14.9674 0.45637 14.9674 0.444093 14.9674 0.431815ZM15.0534 2.86279C13.2117 2.87507 11.3578 2.78912 9.51617 2.88735C5.96793 3.07151 3.3405 5.03593 2.75118 8.85428C2.57929 9.99611 2.57929 11.1379 2.57929 12.292C2.56702 14.8335 2.56702 17.3873 2.61613 19.9287C2.65296 21.5985 3.00901 23.2069 3.97894 24.6065C5.36632 26.5955 7.3553 27.5286 9.70033 27.7005C13.531 27.9829 17.3739 28.1425 21.2045 27.7619C24.4212 27.4427 26.8645 25.2572 27.5398 22.1019C27.7239 21.2179 27.8222 20.3339 27.8222 19.4253C27.8099 16.4296 27.8099 13.4339 27.7608 10.4381C27.7485 9.70144 27.6625 8.94023 27.4784 8.21585C26.7417 5.40426 25.0106 3.61173 22.0762 3.08379C21.3395 2.94873 20.6029 2.86279 19.8417 2.86279C18.2456 2.86279 16.6495 2.86279 15.0534 2.86279Z" fill="white"/>
<path d="M7.04841 15.3857C6.87652 11.1254 10.5844 7.25794 14.9429 7.3316C19.4734 7.41755 23.2181 11.0026 23.1812 15.5085C23.1567 19.8794 19.277 23.5749 15.0903 23.5135C10.1301 23.4522 6.92563 19.3637 7.04841 15.3857ZM15.1517 20.8493C18.1474 20.8616 20.5784 18.4552 20.5661 15.4717C20.5538 12.4023 18.1474 10.0081 15.0412 10.0081C11.9226 9.99585 9.67583 12.2427 9.68811 15.3735C9.71266 18.5288 12.0086 20.837 15.1517 20.8493Z" fill="white"/>
<path d="M22.9971 5.84591C23.7583 5.83364 24.3476 6.36158 24.3721 7.08596C24.409 7.87173 23.7091 8.60839 22.8988 8.63294C22.1622 8.6575 21.5483 8.08045 21.5237 7.36834C21.5115 6.53346 22.1499 5.87047 22.9971 5.84591Z" fill="white"/>
</svg>
