<svg width="31" height="31" viewBox="0 0 31 31" fill="none" xmlns="http://www.w3.org/2000/svg">
<path d="M30.7403 17.6693C30.7403 17.0859 30.7273 16.5025 30.6496 15.9321C30.3255 13.6893 29.3402 11.8355 27.3048 10.6817C24.1027 8.85374 19.2801 9.52787 17.3614 12.5096C17.1669 12.5096 16.9725 12.4966 16.791 12.4966C16.778 11.7577 16.765 11.0187 16.7521 10.2798C16.7002 10.202 16.6484 10.0464 16.5835 10.0464C14.8334 9.89086 13.0832 9.94272 11.3201 10.0075C11.1257 10.0205 11.1127 10.202 11.0609 10.3446C11.0738 16.9692 11.0997 23.5809 11.1127 30.2056C11.2034 30.3093 11.2942 30.5167 11.3979 30.5167C13.2647 30.6074 15.1316 30.6204 16.9984 30.4778C17.0891 30.4648 17.154 30.2444 17.2447 30.1278C17.2447 27.0683 17.2317 24.0217 17.2447 20.9622C17.2447 20.1714 17.2966 19.3806 17.3484 18.5898C17.3873 17.9545 17.5818 17.3452 17.867 16.7877C18.8523 14.882 21.847 14.3116 23.4675 15.7117C23.9601 16.1395 24.3231 16.6581 24.4268 17.3063C24.5176 17.8767 24.6083 18.4471 24.6083 19.0305C24.6342 20.9233 24.6213 22.816 24.6342 24.7218C24.6472 26.5627 24.6861 28.4035 24.712 30.2444C26.7085 30.2574 28.7179 30.2574 30.7144 30.2704C30.7533 30.063 30.8311 29.8685 30.8311 29.6611C30.7922 25.6552 30.7662 21.6622 30.7403 17.6693Z" fill="white"/>
<path d="M6.27706 10.0462C4.59173 10.0462 2.9064 10.0332 1.22107 10.0332C0.728438 10.0332 0.624728 10.1499 0.624728 10.7333C0.611764 13.0538 0.598787 15.3614 0.611752 17.682C0.624716 21.8435 0.650644 26.0049 0.676572 30.1664C0.780284 30.4646 1.01364 30.5424 1.29885 30.5424C2.93233 30.5424 4.5658 30.5294 6.19928 30.5294C6.47152 30.5294 6.71784 30.4775 6.84748 30.1923C6.86045 30.0886 6.88636 29.9849 6.88636 29.8812C6.88636 23.7233 6.88636 17.5524 6.89932 11.3944C6.89932 11.1351 6.89933 10.8629 6.88636 10.6036C6.8734 10.2147 6.65302 10.0462 6.27706 10.0462Z" fill="white"/>
<path d="M1.16918 1.77561C0.0024116 3.11091 0.00240839 5.18516 1.18214 6.39082C2.51744 7.75204 4.92875 7.86872 6.38073 6.63713C7.1845 5.95004 7.62528 5.08145 7.58639 4.00543C7.58639 3.31833 7.46971 2.87755 7.15857 2.34603C5.92698 0.245849 2.75079 -0.0523248 1.16918 1.77561Z" fill="white"/>
</svg>
