<svg width="454" height="51" viewBox="0 0 454 51" fill="none" xmlns="http://www.w3.org/2000/svg">
<path d="M109.473 8.88232H100.633V23.4088H109.473V8.88232ZM106.329 20.3281H103.755V11.9855H106.329V20.3281Z" fill="white"/>
<path d="M75.5945 8.88232H66.7546V23.4088H75.5945V8.88232ZM72.4732 20.3281H69.8987V11.9855H72.4732V20.3281Z" fill="white"/>
<path d="M165.93 45.5807V42.4775H146.792V40.4537H154.356V37.3505H146.792V0H19.1379V37.3505H11.5738V40.4537H19.1379V42.4775H0V45.5807H165.93ZM32.4432 42.4775H28.9574V29.6601H32.4432V42.4775ZM39.0731 42.4775H35.5873V29.6601H39.0731V42.4775ZM45.6802 42.4775H42.1944V29.6601H45.6802V42.4775ZM52.2873 42.4775H48.8015V29.6601H52.2873V42.4775ZM58.9172 42.4775H55.4314V29.6601H58.9172V42.4775ZM65.5244 42.4775H62.0385V29.6601H65.5244V42.4775ZM72.4732 42.4775H68.6684V29.6601H72.4732V42.4775ZM106.329 42.4775H103.754V29.6601H106.329V42.4775ZM115.192 42.4775H109.45V29.6601H115.192V42.4775ZM143.671 42.4775H118.336V29.6601H143.671V42.4775ZM22.2819 23.4087H58.0059V7.62302H118.472V23.4087H143.648V26.5569H100.633V42.4775H75.5945V26.5569H22.2819V23.4087ZM22.2819 29.6601H25.8361V42.4775H22.2819V29.6601Z" fill="white"/>
<path d="M145.243 47.897H20.7099V51.0001H145.243V47.897Z" fill="white"/>
<path d="M178.415 0.944336V9.69169H204.843L178.415 50.9999H220.951V42.2301H194.523L221.27 0.944336H178.415Z" fill="white"/>
<path d="M315.364 50.9999V26.8941L332.065 7.08322V0.944336H326.346L310.694 19.5184L295.042 0.944336H289.278V7.01576L305.978 26.8716V50.9999H315.364Z" fill="white"/>
<path d="M255.513 0.944336L234.097 50.9999H244.122L258.817 15.4033L273.33 50.9999H283.423L261.984 0.944336H255.513Z" fill="white"/>
<path d="M432.584 0.944336H426.113L404.697 50.9999H414.722L429.417 15.4033L443.93 50.9999H454L432.584 0.944336Z" fill="white"/>
<path d="M384.808 8.38746C382.393 6.07132 379.545 4.24989 376.196 2.94566C372.846 1.64143 369.042 0.944336 364.85 0.944336H348.628V50.9999H365.055C369.178 50.9999 372.664 50.1229 376.013 48.8187C379.362 47.5144 382.279 45.6256 384.694 43.3094C387.04 40.9933 388.886 38.2949 390.139 35.3041C391.415 32.2909 392.03 29.1652 392.03 25.8597C392.03 22.5541 391.392 19.361 390.184 16.4152C388.931 13.402 387.154 10.7036 384.808 8.38746ZM381.436 32.0885C381.117 32.7856 380.388 34.0449 380.388 34.0449C380.388 34.0674 380.365 34.0674 380.365 34.0898C377.882 38.4523 372.733 40.5435 372.163 40.7684C369.953 41.5779 367.47 42.0277 364.804 42.0277H357.969V9.64672H364.804C367.47 9.64672 369.93 10.074 372.163 10.9509C374.373 11.7605 376.218 12.9523 377.813 14.4589C379.408 15.898 380.593 17.652 381.436 19.5859C382.256 21.5197 382.643 23.656 382.643 25.8372C382.643 28.0409 382.279 30.0872 381.436 32.0885Z" fill="white"/>
</svg>
