<svg width="454" height="51" viewBox="0 0 454 51" fill="none" xmlns="http://www.w3.org/2000/svg">
<g clip-path="url(#clip0_1_3)">
<path d="M109.473 8.88226H100.633V23.4087H109.473V8.88226ZM106.329 20.328H103.754V11.9854H106.329V20.328Z" fill="black"/>
<path d="M75.5945 8.88226H66.7547V23.4087H75.5945V8.88226ZM72.4732 20.328H69.8987V11.9854H72.4732V20.328Z" fill="black"/>
<path d="M165.93 45.5807V42.4775H146.792V40.4537H154.356V37.3505H146.792V0H19.1379V37.3505H11.5738V40.4537H19.1379V42.4775H0V45.5807H165.93ZM32.4432 42.4775H28.9574V29.6601H32.4432V42.4775ZM39.0731 42.4775H35.5873V29.6601H39.0731V42.4775ZM45.6802 42.4775H42.1944V29.6601H45.6802V42.4775ZM52.2873 42.4775H48.8015V29.6601H52.2873V42.4775ZM58.9172 42.4775H55.4314V29.6601H58.9172V42.4775ZM65.5244 42.4775H62.0385V29.6601H65.5244V42.4775ZM72.4732 42.4775H68.6684V29.6601H72.4732V42.4775ZM106.329 42.4775H103.754V29.6601H106.329V42.4775ZM115.192 42.4775H109.45V29.6601H115.192V42.4775ZM143.671 42.4775H118.336V29.6601H143.671V42.4775ZM22.2819 23.4087H58.0059V7.62302H118.472V23.4087H143.648V26.5569H100.633V42.4775H75.5945V26.5569H22.2819V23.4087ZM22.2819 29.6601H25.8361V42.4775H22.2819V29.6601Z" fill="black"/>
<path d="M145.243 47.8969H20.7099V51H145.243V47.8969Z" fill="black"/>
<path d="M178.415 0.944458V9.69181H204.843L178.415 51H220.951V42.2302H194.523L221.27 0.944458H178.415Z" fill="black"/>
<path d="M315.364 51V26.8942L332.065 7.08335V0.944458H326.346L310.694 19.5185L295.042 0.944458H289.278V7.01589L305.978 26.8717V51H315.364Z" fill="black"/>
<path d="M255.513 0.944458L234.097 51H244.122L258.817 15.4035L273.33 51H283.423L261.984 0.944458H255.513Z" fill="black"/>
<path d="M432.584 0.944458H426.113L404.697 51H414.722L429.417 15.4035L443.93 51H454L432.584 0.944458Z" fill="black"/>
<path d="M384.808 8.38758C382.393 6.07144 379.545 4.25001 376.196 2.94578C372.846 1.64155 369.042 0.944458 364.85 0.944458H348.628V51H365.055C369.178 51 372.664 50.123 376.013 48.8188C379.362 47.5146 382.279 45.6257 384.694 43.3095C387.04 40.9934 388.886 38.295 390.139 35.3042C391.415 32.291 392.03 29.1654 392.03 25.8598C392.03 22.5542 391.392 19.3611 390.184 16.4154C388.931 13.4021 387.154 10.7037 384.808 8.38758ZM381.436 32.0886C381.117 32.7857 380.388 34.045 380.388 34.045C380.388 34.0675 380.365 34.0675 380.365 34.09C377.881 38.4524 372.732 40.5437 372.163 40.7685C369.953 41.5781 367.47 42.0278 364.804 42.0278H357.969V9.64684H364.804C367.47 9.64684 369.93 10.0741 372.163 10.9511C374.373 11.7606 376.218 12.9524 377.813 14.459C379.408 15.8982 380.593 17.6521 381.436 19.586C382.256 21.5199 382.643 23.6561 382.643 25.8373C382.643 28.041 382.279 30.0873 381.436 32.0886Z" fill="black"/>
</g>
<defs>
<clipPath id="clip0_1_3">
<rect width="454" height="51" fill="white"/>
</clipPath>
</defs>
</svg>
