<svg width="134" height="120" viewBox="0 0 134 120" fill="none" xmlns="http://www.w3.org/2000/svg">
<path d="M70.8787 73.1864V104.564L87.4682 113.947C89.1947 114.923 88.4441 117.4 86.4173 117.4H46.7076C44.6808 117.4 43.9302 114.923 45.6567 113.947L62.2462 104.564V73.1864L38.3753 47.2137L21.4856 28.8226C20.4346 27.6966 21.2604 25.895 22.7617 25.895H110.363C111.865 25.895 112.69 27.6966 111.639 28.8226L70.8787 73.1864Z" stroke="black" stroke-width="4.4097" stroke-miterlimit="10" stroke-linecap="round" stroke-linejoin="round"/>
<path d="M130.856 3H106.009L93.3234 25.9701" stroke="black" stroke-width="4.4097" stroke-miterlimit="10" stroke-linecap="round" stroke-linejoin="round"/>
<path d="M46.0321 25.9702C45.2814 14.5602 35.8231 5.55231 24.188 5.55231C12.1024 5.47724 2.34387 15.3108 2.34387 27.3964C2.34387 39.482 12.1024 49.2405 24.188 49.2405C28.842 49.2405 33.1208 47.8142 36.6489 45.3371" stroke="black" stroke-width="4.4097" stroke-miterlimit="10" stroke-linecap="round" stroke-linejoin="round"/>
</svg>
