<svg width="118" height="136" viewBox="0 0 118 136" fill="none" xmlns="http://www.w3.org/2000/svg">
<path d="M80.2725 70.5845C100.249 75.8657 115.021 94.1587 115.021 115.819V133.5" stroke="black" stroke-width="4.4097" stroke-miterlimit="10" stroke-linecap="round" stroke-linejoin="round"/>
<path d="M2.27856 133.5V115.819C2.27856 93.776 17.5865 75.2534 38.0991 70.3549" stroke="black" stroke-width="4.4097" stroke-miterlimit="10" stroke-linecap="round" stroke-linejoin="round"/>
<path d="M60.4487 69.0537H57.9229" stroke="black" stroke-width="4.4097" stroke-miterlimit="10" stroke-linecap="round" stroke-linejoin="round"/>
<path d="M59.1476 55.8123C73.7313 55.8123 85.5537 43.9899 85.5537 29.4062C85.5537 14.8224 73.7313 3 59.1476 3C44.5638 3 32.7414 14.8224 32.7414 29.4062C32.7414 43.9899 44.5638 55.8123 59.1476 55.8123Z" stroke="black" stroke-width="4.4097" stroke-miterlimit="10" stroke-linecap="round" stroke-linejoin="round"/>
<path d="M80.2724 65.3033V74.5645C80.2724 78.7742 75.527 81.3 72.0827 78.8508L59.1475 69.8956L60.4487 68.9772L72.0827 61.017C75.527 58.5678 80.2724 61.0936 80.2724 65.3033Z" stroke="black" stroke-width="4.4097" stroke-miterlimit="10" stroke-linecap="round" stroke-linejoin="round"/>
<path d="M59.1476 69.8956L46.2889 78.8508C42.8446 81.2235 38.0992 78.7742 38.0992 74.5645V65.3033C38.0992 61.0936 42.8446 58.5678 46.2889 61.017L57.9229 69.0537L59.1476 69.8956Z" stroke="black" stroke-width="4.4097" stroke-miterlimit="10" stroke-linecap="round" stroke-linejoin="round"/>
<path d="M115.021 133.5H2.27856" stroke="black" stroke-width="4.4097" stroke-miterlimit="10" stroke-linecap="round" stroke-linejoin="round"/>
<path d="M75.7566 106.635H96.4223" stroke="black" stroke-width="4.4097" stroke-miterlimit="10" stroke-linecap="round" stroke-linejoin="round"/>
</svg>
