<svg width="128" height="121" viewBox="0 0 128 121" fill="none" xmlns="http://www.w3.org/2000/svg">
<path d="M52.3435 21.649C53.4877 6.13083 67.0035 11.4943 67.0035 11.4943C67.0035 11.4943 71.0797 0.266824 81.5205 3.6279C89.816 6.27386 87.4561 16.7147 87.4561 16.7147C87.4561 16.7147 94.4643 15.2129 98.0399 20.7909C102.617 28.0136 97.0387 35.4509 97.0387 35.4509" stroke="black" stroke-width="4.4097" stroke-miterlimit="10" stroke-linecap="round" stroke-linejoin="round"/>
<path d="M77.4443 19.5752L74.0832 34.8788L84.8816 27.8706" stroke="black" stroke-width="4.4097" stroke-miterlimit="10" stroke-linecap="round" stroke-linejoin="round"/>
<path d="M74.0832 34.8788L67.3611 23.9374" stroke="black" stroke-width="4.4097" stroke-miterlimit="10" stroke-linecap="round" stroke-linejoin="round"/>
<path d="M118.278 56.6901C118.278 57.1907 118.278 57.6913 118.206 58.1919H75.9425C75.9425 57.6913 75.871 57.1907 75.871 56.6901C75.871 44.9621 85.3821 35.5225 97.0386 35.5225C108.767 35.451 118.278 44.9621 118.278 56.6901Z" stroke="black" stroke-width="4.4097" stroke-miterlimit="10" stroke-linecap="round" stroke-linejoin="round"/>
<path d="M60.7104 58.1203L43.1899 32.7335" stroke="black" stroke-width="4.4097" stroke-miterlimit="10" stroke-linecap="round" stroke-linejoin="round"/>
<path d="M43.3329 58.0488V58.1203H11.1524C8.43492 53.043 7.36223 47.0359 8.43492 40.9574C9.07853 37.6678 10.2942 34.5928 11.939 31.8753C15.0856 31.2317 18.3751 31.2317 21.6647 31.8038C24.3822 32.3044 26.9566 33.234 29.245 34.4498C29.6741 44.2469 35.0375 53.186 43.3329 58.0488Z" stroke="black" stroke-width="4.4097" stroke-miterlimit="10" stroke-linecap="round" stroke-linejoin="round"/>
<path d="M66.7175 51.6127C66.2884 53.9011 65.5733 56.118 64.6436 58.1203H43.5475C43.476 58.1203 43.4044 58.0488 43.4044 58.0488C35.0375 53.186 29.6741 44.2469 29.388 34.4497C29.3165 32.5189 29.4595 30.5166 29.8171 28.5142C30.4607 24.9386 31.8194 21.649 33.6073 18.7885C36.9683 18.1449 40.4724 18.0734 44.048 18.717C47.0516 19.2891 49.8405 20.2188 52.3435 21.649C62.8558 27.2985 69.0058 39.2411 66.7175 51.6127Z" stroke="black" stroke-width="4.4097" stroke-miterlimit="10" stroke-linecap="round" stroke-linejoin="round"/>
<path d="M43.3329 58.0488V58.1203H11.1524C8.43492 53.043 7.36223 47.0359 8.43492 40.9574C9.07853 37.6678 10.2942 34.5928 11.939 31.8753C15.0856 31.2317 18.3751 31.2317 21.6647 31.8038C24.3822 32.3044 26.9566 33.234 29.245 34.4498C29.6741 44.2469 35.0375 53.186 43.3329 58.0488Z" stroke="black" stroke-width="4.4097" stroke-miterlimit="10" stroke-linecap="round" stroke-linejoin="round"/>
<path d="M3 58.1203V64.914C3 86.4392 17.8746 104.46 37.898 109.395V117.833H90.102V109.395C110.125 104.532 125 86.5107 125 64.9855V58.1918H3V58.1203Z" stroke="black" stroke-width="4.4097" stroke-miterlimit="10" stroke-linecap="round" stroke-linejoin="round"/>
<path d="M40.4009 99.1684C25.8124 95.5928 15.3001 83.3642 13.7268 68.6326" stroke="black" stroke-width="4.4097" stroke-miterlimit="10" stroke-linecap="round" stroke-linejoin="round"/>
<path d="M90.0305 109.395H37.898" stroke="black" stroke-width="4.4097" stroke-miterlimit="10" stroke-linecap="round" stroke-linejoin="round"/>
</svg>
