<svg width="146" height="104" viewBox="0 0 146 104" fill="none" xmlns="http://www.w3.org/2000/svg">
<path d="M67.7859 45.6158H31.0821V33.6276C31.0821 30.261 33.7918 27.5513 37.1584 27.5513H61.7097C65.0763 27.5513 67.7859 30.261 67.7859 33.6276V45.6158Z" stroke="black" stroke-width="4.4097" stroke-miterlimit="10" stroke-linecap="round" stroke-linejoin="round"/>
<path d="M114.918 45.6158H78.2141V33.6276C78.2141 30.261 80.9237 27.5513 84.2903 27.5513H108.842C112.208 27.5513 114.918 30.261 114.918 33.6276V45.6158Z" stroke="black" stroke-width="4.4097" stroke-miterlimit="10" stroke-linecap="round" stroke-linejoin="round"/>
<path d="M139.305 54.4018V78.7889H6.7771V54.4018C6.7771 49.5572 10.7184 45.6159 15.563 45.6159H130.519C135.364 45.6159 139.305 49.5572 139.305 54.4018Z" stroke="black" stroke-width="4.4097" stroke-miterlimit="10" stroke-linecap="round" stroke-linejoin="round"/>
<path d="M106.542 3H39.6217C26.4838 3 15.8094 13.6745 15.8094 26.8123V45.6158H130.355V26.8123C130.355 13.6745 119.68 3 106.542 3Z" stroke="black" stroke-width="4.4097" stroke-miterlimit="10" stroke-linecap="round" stroke-linejoin="round"/>
<path d="M143 78.7889H3V91.6804H143V78.7889Z" stroke="black" stroke-width="4.4097" stroke-miterlimit="10" stroke-linecap="round" stroke-linejoin="round"/>
<path d="M11.6596 101.505H25.3722V91.6518H11.6596L11.6596 101.505Z" stroke="black" stroke-width="4.4097" stroke-miterlimit="10" stroke-linecap="round" stroke-linejoin="round"/>
<path d="M134.296 91.6804H120.584V101.534H134.296V91.6804Z" stroke="black" stroke-width="4.4097" stroke-miterlimit="10" stroke-linecap="round" stroke-linejoin="round"/>
</svg>
