<svg width="90" height="124" viewBox="0 0 90 124" fill="none" xmlns="http://www.w3.org/2000/svg">
<g clip-path="url(#clip0_8_112)">
<path d="M3.58818 63.3888C3.71107 62.3968 3.8831 61.504 4.07972 60.7848C4.22718 60.264 4.44837 59.8176 4.71871 59.396C4.96448 59.024 5.2594 58.7016 5.62805 58.3792C6.24247 57.8088 7.0535 57.3376 7.98742 56.8912C9.38829 56.2464 11.0841 55.7752 12.8536 55.3784C14.6231 54.9816 16.4664 54.684 18.1868 54.3864C20.0792 54.0392 22.2665 53.7664 24.4784 53.568C26.6903 53.3696 28.9268 53.2704 30.9175 53.2704C31.9252 53.2704 32.8591 53.2952 33.6947 53.3448C34.5303 53.3944 35.2922 53.4688 35.882 53.568C36.8897 53.7416 38.0202 53.9896 39.1753 54.2624C40.9202 54.684 42.7635 55.2048 44.5576 55.6264C45.4669 55.8248 46.3517 56.0232 47.2365 56.1472C48.1212 56.2712 48.9814 56.3704 49.817 56.3704C50.4069 56.3704 50.9721 56.3208 51.5374 56.2216C51.9552 56.1472 52.373 56.048 52.7662 55.8992C53.3806 55.676 53.9459 55.3288 54.462 54.8824C54.9781 54.436 55.3959 53.8656 55.6909 53.196C56.0104 52.5264 56.3053 51.7328 56.6493 50.8152C57.2146 49.1784 57.8536 47.1696 58.4926 44.8632C59.4511 41.4408 60.4342 37.448 61.3189 33.48C61.9579 30.6032 62.5478 27.7264 63.0147 25.0976C63.3588 25.296 63.7029 25.4944 64.0715 25.6432C65.202 26.1392 66.2834 26.3128 67.2419 26.3128C67.6597 26.3128 68.0529 26.288 68.4216 26.2136C69.8716 25.9904 71.1005 25.5936 72.0835 25.1472C73.0912 24.7256 73.8776 24.2544 74.4675 23.8824C74.7624 23.7088 75.0082 23.56 75.1556 23.4856C75.3031 23.5848 75.4751 23.7336 75.6963 23.8824C75.9175 24.056 76.1387 24.2544 76.3845 24.4528C76.5565 24.6016 76.704 24.7008 76.9006 24.8248C77.2201 25.048 77.5887 25.2464 78.0065 25.4944C78.7438 25.8912 79.604 26.3376 80.5379 26.8088C81.2261 27.156 81.9388 27.528 82.627 27.9C83.6592 28.4456 84.6422 29.016 85.3795 29.512C85.7482 29.76 86.0431 30.008 86.2643 30.1816C86.3626 30.2808 86.4363 30.3552 86.4855 30.4048C86.5101 30.4296 86.5347 30.4544 86.5347 30.4792V30.504C86.5592 30.5288 86.5592 30.5536 86.5592 30.6032C86.5592 30.628 86.5838 30.6776 86.5838 30.752C86.5838 30.8512 86.5592 31 86.5101 31.1736C86.4118 31.496 86.2152 31.9176 85.8957 32.3392C85.4287 32.984 84.7651 33.6288 84.1016 34.1248C83.7575 34.3728 83.4134 34.5712 83.0939 34.7448C82.7744 34.8936 82.5041 34.9928 82.3075 35.0424C81.7176 35.1664 81.1769 35.3896 80.6608 35.712C80.1939 35.9848 79.7515 36.3072 79.3091 36.704C78.5226 37.3736 77.7116 38.2168 76.9497 39.2088C75.77 40.6968 74.6395 42.5568 73.7056 44.6896C72.7471 46.8224 71.9852 49.2776 71.592 51.9312C71.2479 54.188 71.0513 56.668 70.8547 59.2224C70.5598 63.0664 70.314 67.1088 69.6996 70.804C69.3801 72.6392 68.9869 74.4 68.4708 76.012C67.9546 77.5992 67.2911 79.0376 66.5046 80.2528C65.3987 81.9392 64.4893 83.0304 63.6783 83.9728C63.3834 84.32 63.0885 84.6424 62.8181 84.9896C62.3512 85.56 61.8842 86.1552 61.491 86.8496C61.196 87.3704 60.9503 87.9408 60.7291 88.5856C60.4096 89.5528 60.213 90.6688 60.0901 92.0328C59.9672 93.4216 59.9181 95.0832 59.9181 97.1912C59.9181 97.6376 59.9181 98.084 59.9181 98.58C59.9426 99.9688 59.9918 101.68 60.0409 103.565C60.0901 105.45 60.1392 107.458 60.1392 109.442C60.1392 110.831 60.1147 112.17 60.0655 113.435C60.0164 114.378 59.9426 115.246 59.8689 116.039C59.7952 116.634 59.7214 117.155 59.6231 117.626C59.5494 117.974 59.4757 118.271 59.4019 118.519C59.3528 118.718 59.2791 118.866 59.2299 118.99C59.1807 119.065 59.1562 119.139 59.1316 119.189C58.8613 119.238 58.5909 119.288 58.3206 119.288C57.829 119.288 57.3129 119.189 56.7968 118.966C56.4036 118.792 56.0103 118.519 55.5925 118.122C54.9781 117.527 54.3391 116.659 53.7739 115.345C53.2086 114.03 52.7416 112.27 52.4221 110.013C52.0781 107.533 51.8569 105.45 51.6848 103.689C51.4145 101.035 51.2425 99.076 50.9475 97.3896C50.8001 96.5464 50.628 95.7776 50.3823 95.0336C50.1365 94.2896 49.817 93.5704 49.4238 92.9008C48.8831 91.9584 48.2687 91.1648 47.6788 90.4208C47.089 89.7016 46.5729 89.0568 46.1305 88.4368C45.7373 87.8416 45 87.5688 44.3118 87.7424C42.6898 88.1392 40.7974 88.3128 38.7575 88.3128C36.7422 88.3128 34.5549 88.1392 32.3184 87.8912C30.1065 87.6432 27.8208 87.3208 25.6089 86.9984C25.4123 86.9736 25.2403 86.9736 25.0437 87.0232C24.5276 87.1224 24.036 87.296 23.5936 87.5192C22.7335 87.9408 21.9962 88.536 21.4063 89.2552C20.8902 89.8752 20.4478 90.5944 20.0792 91.3384C19.4402 92.6776 18.9732 94.1904 18.6291 95.8024C18.113 98.2328 17.8673 100.936 17.7444 103.664C17.6215 106.392 17.5969 109.12 17.5969 111.575C17.5969 111.997 17.5969 112.394 17.5969 112.79C17.5969 114.154 17.5969 115.394 17.5723 116.486C17.5478 117.552 17.4986 118.47 17.4003 119.114C17.3757 119.338 17.302 119.536 17.2037 119.71C17.0562 119.982 16.835 120.206 16.5893 120.354C16.3189 120.503 16.024 120.602 15.7045 120.602H15.385C15.2867 120.602 15.1147 120.602 14.9181 120.553C14.574 120.503 14.1316 120.404 13.6892 120.28C13.3697 120.181 13.0256 120.057 12.7062 119.908C12.2392 119.71 11.846 119.462 11.6494 119.288C11.551 119.214 11.5019 119.139 11.4773 119.114C11.1332 117.23 10.6909 114.626 10.2976 111.997C9.87983 109.343 9.51118 106.64 9.33914 104.656C9.14252 102.399 9.04422 100.961 9.04422 99.8448C9.04422 98.9272 9.09337 98.2328 9.19168 97.3648C9.28998 96.5216 9.43744 95.5296 9.58491 94.1904C9.73237 92.9504 9.85525 91.7104 9.85525 90.4208C9.85525 88.7096 9.65864 86.924 9.11795 85.0392C8.57726 83.1544 7.6925 81.1456 6.34078 78.9632C5.33313 77.3512 4.59583 75.3176 4.12887 73.16C3.63734 71.0024 3.44072 68.7456 3.44072 66.6624C3.41615 65.472 3.4653 64.3808 3.58818 63.3888ZM64.2436 7.41521C64.5385 6.74561 64.9317 6.15041 65.3495 5.62961C65.9885 4.86081 66.7258 4.26561 67.3648 3.89361C67.6843 3.69521 67.9792 3.57121 68.1758 3.49681C68.2496 3.47201 68.2987 3.44721 68.3479 3.44721C68.2987 3.64561 68.225 3.91841 68.1267 4.24081C67.9546 4.81121 67.7089 5.53041 67.4877 6.34881C67.2911 7.16721 67.119 8.13441 67.119 9.17601C67.119 9.94481 67.2173 10.7632 67.4385 11.6064C67.586 12.2016 68.0529 12.6728 68.6674 12.8216C68.6919 12.8216 70.486 13.3176 72.6488 14.136C73.7302 14.5576 74.8853 15.0536 75.9175 15.5992C76.4336 15.872 76.9497 16.1696 77.3921 16.4672C77.8345 16.7648 78.2277 17.0624 78.5226 17.36C78.6701 17.484 78.8667 17.7072 79.1125 18.0048C79.5057 18.5008 79.9727 19.1704 80.4396 19.9144C81.1278 21.0552 81.8159 22.3944 82.3075 23.6592C82.332 23.7584 82.3812 23.8328 82.4058 23.932C81.9388 23.684 81.4718 23.4608 81.0295 23.2376C80.3905 22.9152 79.8006 22.6176 79.3582 22.3448C79.1371 22.2208 78.9404 22.0968 78.793 22.0224C78.6455 21.9232 78.5472 21.8488 78.5226 21.824C78.154 21.5264 77.7362 21.1792 77.343 20.8568C77.1463 20.708 76.9252 20.5592 76.704 20.4104C76.5811 20.336 76.4582 20.2864 76.3107 20.212C76.1633 20.1624 76.0158 20.088 75.7946 20.0384C75.6226 20.0136 75.426 19.964 75.1556 19.964C74.9344 19.964 74.6887 19.9888 74.4675 20.0632C74.2954 20.1128 74.148 20.1624 74.0251 20.212C73.8039 20.3112 73.6319 20.4104 73.4107 20.5096C73.2141 20.6336 72.9929 20.7576 72.7225 20.9064C72.1327 21.2536 71.4937 21.6256 70.7318 21.9728C69.9699 22.2952 69.036 22.6176 67.8809 22.7912C67.6843 22.816 67.4631 22.8408 67.2419 22.8408C66.7258 22.8408 66.1114 22.7416 65.4232 22.444C64.9071 22.2208 64.3664 21.8984 63.752 21.4024C63.7766 21.328 63.7766 21.2784 63.8012 21.204C63.9486 20.584 64.1207 19.8648 64.2436 19.0464C64.3664 18.228 64.4647 17.3352 64.4647 16.4176C64.4647 15.4504 64.3664 14.4584 64.0715 13.4664C63.752 12.3752 63.6046 11.408 63.6046 10.54C63.6046 9.34961 63.8503 8.33281 64.2436 7.41521ZM30.8438 115.246C30.5734 116.014 30.1311 116.56 29.6395 116.957C29.1726 117.329 28.6073 117.527 28.042 117.602C28.0175 117.602 27.9929 117.577 27.9683 117.577C27.8454 117.527 27.5997 117.403 27.3539 117.205C26.8869 116.882 26.3217 116.362 25.7072 115.742C24.7979 114.799 23.8394 113.609 23.0038 112.369C22.1682 111.104 21.4555 109.79 21.0377 108.649C21.0131 108.599 20.9885 108.55 20.9639 108.5C20.9885 107.136 21.0131 105.747 21.0622 104.358C21.136 102.523 21.2589 100.738 21.48 99.0512C21.6521 97.7864 21.8487 96.6208 22.119 95.5544C22.3157 94.7608 22.5614 94.0416 22.8072 93.3968C23.2004 92.4544 23.6428 91.7104 24.1098 91.2392C24.3555 90.9912 24.5767 90.8176 24.8225 90.6688C24.9945 90.5696 25.1666 90.4952 25.3632 90.4456C26.9115 90.6688 28.4844 90.892 30.0819 91.0904C30.0327 92.8512 30.0082 94.9096 30.0082 97.0424C30.0082 99.8448 30.0573 102.746 30.1556 105.251C30.2048 106.491 30.2785 107.657 30.3768 108.624C30.426 109.12 30.4751 109.566 30.5243 109.988C30.5734 110.41 30.6472 110.782 30.7455 111.129C30.9667 111.972 31.0404 112.716 31.0404 113.361C31.1387 114.105 31.0404 114.725 30.8438 115.246ZM3.41614 80.7488C4.6204 82.708 5.35771 84.4192 5.80009 85.9816C6.24247 87.544 6.41451 88.9576 6.41451 90.396C6.41451 91.4872 6.3162 92.5784 6.16874 93.7192C5.9967 95.0336 5.87382 96.0256 5.75093 96.9432C5.65263 97.8608 5.5789 98.7536 5.5789 99.7952C5.5789 101.085 5.6772 102.622 5.87382 104.929C6.07043 107.062 6.43908 109.79 6.85689 112.493C7.27469 115.196 7.71707 117.825 8.06115 119.734C8.15945 120.23 8.35607 120.652 8.60184 120.999C8.82303 121.297 9.04422 121.57 9.31456 121.793C9.75694 122.19 10.2485 122.487 10.7646 122.76C11.5265 123.157 12.3375 123.454 13.124 123.653C13.5172 123.752 13.9104 123.826 14.2791 123.901C14.6477 123.95 14.9918 124 15.3604 124H15.6799C16.9579 124 18.1622 123.529 19.0469 122.71C19.9563 121.917 20.5707 120.776 20.7427 119.511C20.8656 118.668 20.9148 117.651 20.9394 116.51C20.9394 116.138 20.9639 115.766 20.9639 115.37C21.8487 116.56 22.7826 117.651 23.6919 118.569C24.3801 119.238 25.0437 119.809 25.7072 120.23C26.0513 120.454 26.3708 120.627 26.7395 120.776C26.9115 120.85 27.1081 120.925 27.3293 120.95C27.5259 120.999 27.7471 121.024 27.9929 121.024C28.0666 121.024 28.1403 121.024 28.2386 121.024C29.0497 120.95 29.8607 120.726 30.598 120.354C31.7285 119.784 32.7116 118.891 33.4243 117.676C34.1371 116.486 34.5303 114.998 34.5303 113.336C34.5303 112.369 34.4074 111.352 34.1371 110.261C34.0879 110.087 34.0388 109.79 33.9896 109.467C33.8913 108.872 33.8176 108.078 33.7684 107.186C33.6701 105.822 33.5964 104.185 33.5718 102.449C33.5226 100.713 33.4981 98.8528 33.4981 97.0176C33.4981 95.0336 33.5226 93.124 33.5472 91.4376C35.2922 91.6112 37.0125 91.7104 38.7083 91.7104C40.527 91.7104 42.2965 91.5864 43.9432 91.2888C44.2873 91.7352 44.6313 92.1568 44.9508 92.5536C45.4915 93.248 46.0076 93.8928 46.4008 94.5872C46.7695 95.232 47.0153 95.852 47.2365 96.6456C47.3839 97.2408 47.5314 97.9104 47.6297 98.7288C47.8017 99.944 47.9492 101.457 48.1458 103.366C48.3424 105.276 48.5882 107.607 48.9568 110.434C49.2517 112.666 49.7187 114.526 50.3085 116.089C50.7509 117.254 51.2916 118.271 51.8815 119.114C52.7662 120.379 53.823 121.297 54.9044 121.867C56.0103 122.462 57.1655 122.686 58.1977 122.686C58.8858 122.686 59.5248 122.586 60.1147 122.438C60.4096 122.363 60.6799 122.214 60.9257 122.066C61.1469 121.917 61.3435 121.743 61.491 121.57C61.7859 121.222 62.0071 120.875 62.1791 120.478C62.4986 119.809 62.6952 119.09 62.8673 118.296C63.113 117.081 63.2605 115.717 63.3342 114.204C63.4325 112.691 63.4571 111.079 63.4571 109.442C63.4571 107.409 63.4079 105.35 63.3588 103.466C63.3096 101.581 63.2605 99.8696 63.2359 98.5304C63.2359 98.0592 63.2359 97.6128 63.2359 97.1912C63.2359 94.4136 63.3342 92.5288 63.5554 91.1896C63.6291 90.6936 63.7274 90.272 63.8258 89.9248C63.9978 89.3048 64.1944 88.8584 64.4647 88.4368C64.6614 88.1144 64.8826 87.792 65.1775 87.42C65.6199 86.8744 66.1851 86.2296 66.8733 85.3864C67.5614 84.5432 68.3724 83.5016 69.2572 82.1624C70.6089 80.104 71.5183 77.748 72.1818 75.2432C73.1649 71.4736 73.5827 67.3568 73.9022 63.3888C74.0497 61.4048 74.1971 59.4456 74.3446 57.6104C74.4921 55.7752 74.6641 54.0144 74.9099 52.452C75.2294 50.4184 75.77 48.5336 76.4582 46.8472C77.4904 44.2928 78.8421 42.1848 80.1201 40.7216C80.7591 39.9776 81.3735 39.4072 81.8897 39.0104C82.16 38.812 82.3812 38.6632 82.5778 38.5888C82.7744 38.4896 82.8973 38.44 82.971 38.44C83.3888 38.3408 83.8066 38.2168 84.1999 38.0432C84.9126 37.7456 85.5762 37.324 86.2151 36.8528C87.1736 36.1336 88.0584 35.2408 88.7466 34.224C89.0906 33.728 89.3856 33.1824 89.6067 32.612C89.8279 32.0416 89.9754 31.4216 89.9754 30.7768C89.9754 30.4544 89.9508 30.132 89.8525 29.8096C89.7788 29.4872 89.6559 29.1648 89.4839 28.8672C89.3364 28.5944 89.1644 28.3712 88.9678 28.148C88.6237 27.7512 88.2304 27.4288 87.8126 27.1064C87.3948 26.784 86.9279 26.4864 86.4363 26.1888C86.4118 25.8664 86.3626 25.5688 86.2889 25.2464C86.0923 24.2544 85.7728 23.2376 85.3795 22.2456C84.7651 20.7328 84.0033 19.2696 83.1922 17.98C82.799 17.3352 82.3812 16.74 81.988 16.244C81.5947 15.7232 81.2015 15.2768 80.8083 14.9048C80.3167 14.4584 79.776 14.0368 79.2108 13.6648C78.2277 12.9952 77.1218 12.4496 76.0404 11.9288C74.4183 11.1848 72.7963 10.6144 71.5674 10.1928C71.1742 10.0688 70.8301 9.96961 70.5598 9.87041C70.5352 9.64721 70.5352 9.44881 70.5352 9.22561C70.5352 8.18401 70.781 7.19201 71.1005 6.22481C71.2479 5.75361 71.42 5.28241 71.5428 4.78641C71.6166 4.53841 71.6657 4.29041 71.7149 4.04241C71.764 3.76961 71.7886 3.49681 71.7886 3.19921C71.7886 2.87681 71.7395 2.52961 71.6166 2.15761C71.5183 1.88481 71.3708 1.61201 71.1988 1.36401C71.0513 1.19041 70.9038 1.01681 70.7318 0.868011C70.4615 0.644811 70.1911 0.496011 69.8962 0.372011C69.6013 0.248011 69.3064 0.148811 69.0114 0.0744108C68.7903 0.0248108 68.6182 0.0248108 68.4462 0.0248108C68.225 0.0248108 68.0038 0.0496108 67.8072 0.0992108C67.414 0.173611 67.0453 0.297611 66.6521 0.446411C65.9885 0.719211 65.2758 1.14081 64.5385 1.68641C63.4571 2.50481 62.3757 3.64561 61.5401 5.13361C61.1223 5.87761 60.7782 6.69601 60.5325 7.61361C60.2867 8.53121 60.1392 9.49841 60.1392 10.5648C60.1392 11.8048 60.3359 13.1192 60.7537 14.508C60.9257 15.0784 60.9994 15.748 60.9994 16.4672C60.9994 17.5088 60.8274 18.6 60.6308 19.5672C60.5325 20.0384 60.4096 20.4848 60.3113 20.8816C60.2621 21.08 60.213 21.2536 60.1638 21.4272C60.1638 21.452 60.1392 21.5016 60.1392 21.5264C60.1392 21.5512 60.1392 21.576 60.1147 21.576C60.0901 21.6752 60.0655 21.7992 60.0409 21.8984C60.0164 21.9728 60.0164 22.072 60.0164 22.1464C59.2299 26.9824 57.9028 33.232 56.5019 38.812C55.7892 41.6888 55.0519 44.392 54.3637 46.6488C54.0196 47.7648 53.7001 48.7816 53.3806 49.6496C53.0857 50.5176 52.7908 51.212 52.5696 51.708C52.4713 51.9312 52.3484 52.1048 52.201 52.2288C52.1026 52.328 51.9798 52.4272 51.8323 52.5016C51.6111 52.6256 51.3408 52.7248 50.9967 52.7992C50.6526 52.8736 50.2348 52.8984 49.7433 52.8984C48.9323 52.8984 47.9492 52.7744 46.8924 52.6008C45.2949 52.3032 43.5254 51.8568 41.7313 51.3856C39.9372 50.9144 38.0939 50.4432 36.349 50.1704C35.5871 50.0464 34.7515 49.972 33.8421 49.9224C32.9082 49.8728 31.9252 49.848 30.8684 49.848C28.7548 49.848 26.4445 49.9472 24.1343 50.1456C21.8241 50.344 19.5385 50.6416 17.4986 51.0136C16.0486 51.2864 14.4265 51.5344 12.7799 51.8816C11.551 52.1296 10.2976 52.4272 9.09337 52.7992C8.18403 53.072 7.29927 53.4192 6.43908 53.816C5.16109 54.4112 3.95683 55.1552 2.94919 56.1472C2.45765 56.6432 1.99069 57.1888 1.62204 57.8088C1.25339 58.4288 0.933895 59.1232 0.737281 59.8424C0.466937 60.7848 0.270323 61.8512 0.122863 62.992C-0.0245975 64.1328 -0.0983276 65.3728 -0.0983276 66.6376C-0.0983276 68.9688 0.14744 71.4736 0.688128 73.904C1.32712 76.3096 2.16273 78.6904 3.41614 80.7488Z" fill="black"/>
<path d="M74.6149 29.3632C76.237 29.3632 77.5641 28.7928 77.5641 28.0736C77.5641 27.3544 76.237 26.784 74.6149 26.784C72.9929 26.784 71.6657 27.3544 71.6657 28.0736C71.6657 28.7928 72.9929 29.3632 74.6149 29.3632Z" fill="black"/>
</g>
<defs>
<clipPath id="clip0_8_112">
<rect width="90" height="124" fill="white"/>
</clipPath>
</defs>
</svg>
