<svg width="41" height="41" viewBox="0 0 41 41" fill="none" xmlns="http://www.w3.org/2000/svg">
<path d="M7.68502 5.51501H1V39.0238H23.565" stroke="#9A9A9A" stroke-width="2" stroke-miterlimit="10" stroke-linecap="round" stroke-linejoin="round"/>
<path d="M31.6016 5.51501H36.2352V20.7441" stroke="#9A9A9A" stroke-width="2" stroke-miterlimit="10" stroke-linecap="round" stroke-linejoin="round"/>
<path d="M25.9059 5.51501H13.3564" stroke="#9A9A9A" stroke-width="2" stroke-miterlimit="10" stroke-linecap="round" stroke-linejoin="round"/>
<path d="M1 13.6664H36.2351" stroke="#9A9A9A" stroke-width="2" stroke-miterlimit="10" stroke-linecap="round" stroke-linejoin="round"/>
<path d="M9.51873 10.03C8.50511 10.03 7.68457 9.20025 7.68457 8.17522V2.85482C7.68457 1.82979 8.50511 1 9.51873 1C10.5323 1 11.3529 1.82979 11.3529 2.85482V8.17522C11.3288 9.20025 10.5082 10.03 9.51873 10.03Z" stroke="#9A9A9A" stroke-width="2" stroke-miterlimit="10" stroke-linecap="round" stroke-linejoin="round"/>
<path d="M27.7394 10.03C26.7258 10.03 25.9053 9.20025 25.9053 8.17522V2.85482C25.9053 1.82979 26.7258 1 27.7394 1C28.753 1 29.5736 1.82979 29.5736 2.85482V8.17522C29.5495 9.20025 28.7289 10.03 27.7394 10.03Z" stroke="#9A9A9A" stroke-width="2" stroke-miterlimit="10" stroke-linecap="round" stroke-linejoin="round"/>
<path d="M29.4531 24.3317H39.0342" stroke="#9A9A9A" stroke-width="2" stroke-miterlimit="10" stroke-linecap="round" stroke-linejoin="round"/>
<path d="M27.1846 28.7491H34.2316" stroke="#9A9A9A" stroke-width="2" stroke-miterlimit="10" stroke-linecap="round" stroke-linejoin="round"/>
<path d="M22.334 33.1909H25.592" stroke="#9A9A9A" stroke-width="2" stroke-miterlimit="10" stroke-linecap="round" stroke-linejoin="round"/>
<path d="M29.5742 33.1909H39.0346" stroke="#9A9A9A" stroke-width="2" stroke-miterlimit="10" stroke-linecap="round" stroke-linejoin="round"/>
<path d="M27.9326 38.5845H36.7897" stroke="#9A9A9A" stroke-width="2" stroke-miterlimit="10" stroke-linecap="round" stroke-linejoin="round"/>
</svg>
